# xmcd CD database file
#
# Track frame offsets:
#	182
#	15397
#	27410
#	40452
#	55372
#	71722
#	83110
#	95467
#	107450
#	121065
#	136922
#	150907
#	164902
#	177570
#	190817
#	200385
#	212452
#	222410
#	236662
#	249267
#	267710
#
# Disc length: 3791 seconds
#
# Revision: 3
# Processed by: cddbd v1.5.2PL0 Copyright (c) Steve Scherf et al.
# Submitted via: CDex 1.51
#
DISCID=2a0ecd15
DTITLE=Various Artist - THE HEART AND SOUL OF COUNTRY [CD 2)
DYEAR=1992
DGENRE=Country
TTITLE0=Billy Jo Spears - I Will Survive
TTITLE1=Billy Jo Spears - Misty Blue
TTITLE2=Billy Jo Spears - '57 Chevrolet
TTITLE3=Billy Jo Spears - (Hey Won't You Play) Another Somebody Done Somebody Wrong Song
TTITLE4=Billy Jo Spears - Fire and Rain
TTITLE5=Billy Jo Spears - Tennessee Waltz
TTITLE6=Billy Jo Spears - That's What Friends Are For
TTITLE7=Johnny Cash - Ring of Fire
TTITLE8=Johnny Cash met June Carter - If I were a Carpenter
TTITLE9=Johnny Cash - The Night They Drove Old Dixie Down
TTITLE10=Johnny Cash - Don't Take Your Guns To Town
TTITLE11=Johnny Cash - It Ain´t Me Babe
TTITLE12=Johnny Cash - Folsom Prison Blues
TTITLE13=Johnny Cash - Forty Shades Of Green
TTITLE14=Johnny Cash - I Got Stripes
TTITLE15=Johnny Cash - What Is Truth
TTITLE16=Johnny Cash - Reason To Believe
TTITLE17=Johnny Cash - Orange Blossom Special
TTITLE18=Johnny Cash met June Carter - Jackson
TTITLE19=Johnny Cash - One Piece At A Time
TTITLE20=Johnny Cash - A boy named Sue
EXTD=YEAR: 1992
EXTT0=
EXTT1=
EXTT2=
EXTT3=
EXTT4=
EXTT5=
EXTT6=
EXTT7=
EXTT8=
EXTT9=
EXTT10=
EXTT11=
EXTT12=
EXTT13=
EXTT14=
EXTT15=
EXTT16=
EXTT17=
EXTT18=
EXTT19=
EXTT20=
PLAYORDER=
